<svg id="Layer_1" data-name="Layer 1" xmlns="http://www.w3.org/2000/svg" viewBox="0 0 956 465"><defs><style>.cls-1{fill:#222f6e;}.cls-2{fill:#b9131a;fill-rule:evenodd;}</style></defs><path class="cls-1" d="M242.6,311.3,390.4,8.3H282.9l-89.5,206h-.7L104.6,8.3H0L164.2,350.1C190.3,334.5,216.4,321,242.6,311.3Zm249.2-50c81.3,3,182.1,35.1,256,49.3,17.9,3.7,34.3,6.7,49.3,6.7,30.5.7,158.9-6.7,158.9-117.2,0-88.8-152.2-76.9-208.2-97.8-12.7-4.5-20.1-11.2-20.1-20.9,0-14.2,7.5-22.4,20.1-28.4,10.4-3.7,23.9-6,37.3-6,37.3,0,57.5,14.2,60.4,43.3h100C941,24.6,867.9,0,795.5,0c-17.9,0-33.6.7-47.8,3-61.2,6.7-94,27.6-109.7,50V8.2H538.8V176.1c0,50.7-16.4,67.9-67.2,67.9-51.5,0-67.2-17.2-67.2-67.9V53.1L312.6,238.9c0,18.7,9.7,32.8,33.6,43.3C388.1,268,437.3,259.8,491.8,261.3Zm147-130.6c20.1,31.3,64.9,41.8,109.7,47,54.5,8.2,108.2,10.4,108.2,41,0,20.9-19.4,32.8-64.2,32.8-14.2,0-30.6-.7-44-6-16.4-6-29.1-17.2-29.1-41H638.8V130.7Z"/><path class="cls-2" d="M864.2,337.4C723.9,394.1,423.2,135.9,103.8,465H222.4C424.6,231.4,647,374,806.7,367.2c73.9-3,111.9-61.2,111.2-61.2C916.4,306.1,901.5,323.3,864.2,337.4ZM297.8,465H405.3c12.7-24.6,66.4-97.8,282.8-87.3,62.7,3,69.4,0,69.4,0s-30.6-3-56.7-7.5C432.1,321.8,323.2,433.7,297.8,465Zm174.6,0H573.1c14.2-57.5,150.7-73.1,150.7-73.1S544.8,383.7,472.4,465Z"/></svg>